<svg xmlns="http://www.w3.org/2000/svg">
  <defs>
    <symbol id="alert-circle" viewBox="0 0 24 24">
      <path stroke="none" d="M0 0h24v24H0z" fill="none"/>
      <circle cx="12" cy="12" r="9" />
      <line x1="12" y1="8" x2="12" y2="12" />
      <line x1="12" y1="16" x2="12.01" y2="16" />
    </symbol>

    <symbol id="arrow-left" viewBox="0 0 24 24">
      <path stroke="none" d="M0 0h24v24H0z" fill="none"/>
      <line x1="5" y1="12" x2="19" y2="12" />
      <line x1="5" y1="12" x2="9" y2="16" />
      <line x1="5" y1="12" x2="9" y2="8" />
    </symbol>

    <symbol id="arrow-right" viewBox="0 0 24 24">
      <path stroke="none" d="M0 0h24v24H0z" fill="none"/>
      <line x1="5" y1="12" x2="19" y2="12" />
      <line x1="15" y1="16" x2="19" y2="12" />
      <line x1="15" y1="8" x2="19" y2="12" />
    </symbol>

    <symbol id="arrow-up-right" viewBox="0 0 24 24">
      <path stroke="none" d="M0 0h24v24H0z" fill="none"/>
      <line x1="17" y1="7" x2="7" y2="17" />
      <polyline points="8 7 17 7 17 16" />
    </symbol>

    <symbol id="arrow-up" viewBox="0 0 24 24">
      <path stroke="none" d="M0 0h24v24H0z" fill="none"/>
      <line x1="12" y1="5" x2="12" y2="19" />
      <line x1="16" y1="9" x2="12" y2="5" />
      <line x1="8" y1="9" x2="12" y2="5" />
    </symbol>

    <symbol id="bookmark" viewBox="0 0 24 24">
      <path stroke="none" d="M0 0h24v24H0z" fill="none"/>
      <path d="M9 4h6a2 2 0 0 1 2 2v14l-5 -3l-5 3v-14a2 2 0 0 1 2 -2" />
    </symbol>

    <symbol id="brightness-down" viewBox="0 0 24 24">
      <path stroke="none" d="M0 0h24v24H0z" fill="none"/>
      <circle cx="12" cy="12" r="3" />
      <line x1="12" y1="5" x2="12" y2="5.01" />
      <line x1="17" y1="7" x2="17" y2="7.01" />
      <line x1="19" y1="12" x2="19" y2="12.01" />
      <line x1="17" y1="17" x2="17" y2="17.01" />
      <line x1="12" y1="19" x2="12" y2="19.01" />
      <line x1="7" y1="17" x2="7" y2="17.01" />
      <line x1="5" y1="12" x2="5" y2="12.01" />
      <line x1="7" y1="7" x2="7" y2="7.01" />
    </symbol>

    <symbol id="brightness-up" viewBox="0 0 24 24">
      <path stroke="none" d="M0 0h24v24H0z" fill="none"/>
      <circle cx="12" cy="12" r="3" />
      <line x1="12" y1="5" x2="12" y2="3" />
      <line x1="17" y1="7" x2="18.4" y2="5.6" />
      <line x1="19" y1="12" x2="21" y2="12" />
      <line x1="17" y1="17" x2="18.4" y2="18.4" />
      <line x1="12" y1="19" x2="12" y2="21" />
      <line x1="7" y1="17" x2="5.6" y2="18.4" />
      <line x1="6" y1="12" x2="4" y2="12" />
      <line x1="7" y1="7" x2="5.6" y2="5.6" />
    </symbol>

    <symbol id="check" viewBox="0 0 24 24">
      <path stroke="none" d="M0 0h24v24H0z" fill="none"/>
      <path d="M5 12l5 5l10 -10" />
    </symbol>

    <symbol id="chevron-left" viewBox="0 0 24 24">
      <path stroke="none" d="M0 0h24v24H0z" fill="none"/>
      <polyline points="15 6 9 12 15 18" />
    </symbol>

    <symbol id="chevron-right" viewBox="0 0 24 24">
      <path stroke="none" d="M0 0h24v24H0z" fill="none"/>
      <polyline points="9 6 15 12 9 18" />
    </symbol>

    <symbol id="circle-check" viewBox="0 0 24 24">
      <path stroke="none" d="M0 0h24v24H0z" fill="none"/>
      <circle cx="12" cy="12" r="9" />
      <path d="M9 12l2 2l4 -4" />
    </symbol>

    <symbol id="copy" viewBox="0 0 24 24">
      <path stroke="none" d="M0 0h24v24H0z" fill="none"/>
      <rect x="8" y="8" width="12" height="12" rx="2" />
      <path d="M16 8v-2a2 2 0 0 0 -2 -2h-8a2 2 0 0 0 -2 2v8a2 2 0 0 0 2 2h2" />
    </symbol>

    <symbol id="dots" viewBox="0 0 24 24">
      <circle cx="5" cy="12" r="1" />
      <circle cx="12" cy="12" r="1" />
      <circle cx="19" cy="12" r="1" />
    </symbol>

    <symbol id="facebook" viewBox="0 0 24 24">
      <path stroke="none" d="M0 0h24v24H0z" fill="none"/>
      <path d="M7 10v4h3v7h4v-7h3l1 -4h-4v-2a1 1 0 0 1 1 -1h3v-4h-3a5 5 0 0 0 -5 5v2h-3" />
    </symbol>

    <symbol id="github" viewBox="0 0 24 24">
      <path stroke="none" d="M0 0h24v24H0z" fill="none"/>
      <path d="M9 19c-4.3 1.4 -4.3 -2.5 -6 -3m12 5v-3.5c0 -1 .1 -1.4 -.5 -2c2.8 -.3 5.5 -1.4 5.5 -6a4.6 4.6 0 0 0 -1.3 -3.2a4.2 4.2 0 0 0 -.1 -3.2s-1.1 -.3 -3.5 1.3a12.3 12.3 0 0 0 -6.2 0c-2.4 -1.6 -3.5 -1.3 -3.5 -1.3a4.2 4.2 0 0 0 -.1 3.2a4.6 4.6 0 0 0 -1.3 3.2c0 4.6 2.7 5.7 5.5 6c-.6 .6 -.6 1.2 -.5 2v3.5" />
    </symbol>

    <symbol id="instagram" viewBox="0 0 24 24">
      <rect x="2" y="2" width="20" height="20" rx="5" ry="5"></rect>
      <path d="M16 11.37A4 4 0 1 1 12.63 8 4 4 0 0 1 16 11.37z"></path>
      <line x1="17.5" y1="6.5" x2="17.51" y2="6.5"></line>
    </symbol>

    <symbol id="link" viewBox="0 0 24 24">
      <path stroke="none" d="M0 0h24v24H0z" fill="none"/>
      <path d="M10 14a3.5 3.5 0 0 0 5 0l4 -4a3.5 3.5 0 0 0 -5 -5l-.5 .5" />
      <path d="M14 10a3.5 3.5 0 0 0 -5 0l-4 4a3.5 3.5 0 0 0 5 5l.5 -.5" />
    </symbol>

    <symbol id="linkedin" viewBox="0 0 24 24">
      <path d="M16 8a6 6 0 0 1 6 6v7h-4v-7a2 2 0 0 0-2-2 2 2 0 0 0-2 2v7h-4v-7a6 6 0 0 1 6-6z"/>
      <rect x="2" y="9" width="4" height="12"/>
      <circle cx="4" cy="4" r="2"/>
    </symbol>

    <symbol id="list" viewBox="0 0 24 24">
      <path stroke="none" d="M0 0h24v24H0z" fill="none"/>
      <line x1="9" y1="6" x2="20" y2="6" />
      <line x1="9" y1="12" x2="20" y2="12" />
      <line x1="9" y1="18" x2="20" y2="18" />
      <line x1="5" y1="6" x2="5" y2="6.01" />
      <line x1="5" y1="12" x2="5" y2="12.01" />
      <line x1="5" y1="18" x2="5" y2="18.01" />
    </symbol>

    <symbol id="lock" viewBox="0 0 24 24">
      <path stroke="none" d="M0 0h24v24H0z" fill="none"/>
      <rect x="5" y="11" width="14" height="10" rx="2" />
      <circle cx="12" cy="16" r="1" />
      <path d="M8 11v-4a4 4 0 0 1 8 0v4" />
    </symbol>

    <symbol id="login" viewBox="0 0 24 24">
      <path d="M15 3h4a2 2 0 0 1 2 2v14a2 2 0 0 1-2 2h-4"/>
      <polyline points="10 17 15 12 10 7"/>
      <line x1="15" y1="12" x2="3" y2="12"/>
    </symbol>

    <symbol id="logout" viewBox="0 0 24 24">
      <path d="M9 21H5a2 2 0 0 1-2-2V5a2 2 0 0 1 2-2h4"/>
      <polyline points="16 17 21 12 16 7"/>
      <line x1="21" y1="12" x2="9" y2="12"/>
    </symbol>

    <symbol id="mail" viewBox="0 0 24 24">
      <path stroke="none" d="M0 0h24v24H0z" fill="none"/>
      <rect x="3" y="5" width="18" height="14" rx="2" />
      <polyline points="3 7 12 13 21 7" />
    </symbol>

    <symbol id="menu" viewBox="0 0 24 24">
      <path stroke="none" d="M0 0h24v24H0z" fill="none"/>
      <line x1="4" y1="6" x2="20" y2="6" />
      <line x1="4" y1="12" x2="20" y2="12" />
      <line x1="4" y1="18" x2="20" y2="18" />
    </symbol>

    <symbol id="pinterest" viewBox="0 0 24 24">
      <path stroke="none" d="M0 0h24v24H0z" fill="none"/>
      <line x1="8" y1="20" x2="12" y2="11" />
      <path d="M10.7 14c.437 1.263 1.43 2 2.55 2c2.071 0 3.75 -1.554 3.75 -4a5 5 0 1 0 -9.7 1.7" />
      <circle cx="12" cy="12" r="9" />
    </symbol>

    <symbol id="reddit" viewBox="0 0 24 24">
      <path stroke="none" d="M0 0h24v24H0z" fill="none"/>
      <path d="M12 8c2.648 0 5.028 .826 6.675 2.14a2.5 2.5 0 0 1 2.326 4.36c0 3.59 -4.03 6.5 -9 6.5c-4.875 0 -8.845 -2.8 -9 -6.294l-1 -.206a2.5 2.5 0 0 1 2.326 -4.36c1.646 -1.313 4.026 -2.14 6.674 -2.14z" />
      <path d="M12 8l1 -5l6 1" />
      <circle cx="19" cy="4" r="1" />
      <circle cx="9" cy="13" r=".5" fill="currentColor" />
      <circle cx="15" cy="13" r=".5" fill="currentColor" />
      <path d="M10 17c.667 .333 1.333 .5 2 .5s1.333 -.167 2 -.5" />
    </symbol>

    <symbol id="rss" viewBox="0 0 24 24">
      <path stroke="none" d="M0 0h24v24H0z" fill="none"/>
      <circle cx="5" cy="19" r="1" />
      <path d="M4 4a16 16 0 0 1 16 16" />
      <path d="M4 11a9 9 0 0 1 9 9" />
    </symbol>

    <symbol id="search" viewBox="0 0 24 24">
      <path stroke="none" d="M0 0h24v24H0z" fill="none"/>
      <circle cx="10" cy="10" r="7" />
      <line x1="21" y1="21" x2="15" y2="15" />
    </symbol>

    <symbol id="star" viewBox="0 0 24 24">
      <path stroke="none" d="M0 0h24v24H0z" fill="none"/>
      <path d="M12 17.75l-6.172 3.245l1.179 -6.873l-5 -4.867l6.9 -1l3.086 -6.253l3.086 6.253l6.9 1l-5 4.867l1.179 6.873z" />
    </symbol>

    <symbol id="trending-up" viewBox="0 0 24 24">
      <path stroke="none" d="M0 0h24v24H0z" fill="none"/>
      <polyline points="3 17 9 11 13 15 21 7" />
      <polyline points="14 7 21 7 21 14" />
    </symbol>

    <symbol id="twitter" viewBox="0 0 24 24">
      <path stroke="none" d="M0 0h24v24H0z" fill="none"/>
      <path d="M22 4.01c-1 .49 -1.98 .689 -3 .99c-1.121 -1.265 -2.783 -1.335 -4.38 -.737s-2.643 2.06 -2.62 3.737v1c-3.245 .083 -6.135 -1.395 -8 -4c0 0 -4.182 7.433 4 11c-1.872 1.247 -3.739 2.088 -6 2c3.308 1.803 6.913 2.423 10.034 1.517c3.58 -1.04 6.522 -3.723 7.651 -7.742a13.84 13.84 0 0 0 .497 -3.753c-.002 -.249 1.51 -2.772 1.818 -4.013z" />
    </symbol>

    <symbol id="user" viewBox="0 0 24 24">
      <path d="M20 21v-2a4 4 0 0 0-4-4H8a4 4 0 0 0-4 4v2"></path>
      <circle cx="12" cy="7" r="4"></circle>
    </symbol>

    <symbol id="x" viewBox="0 0 24 24">
      <path stroke="none" d="M0 0h24v24H0z" fill="none"/>
      <line x1="18" y1="6" x2="6" y2="18" />
      <line x1="6" y1="6" x2="18" y2="18" />
    </symbol>

    <symbol id="youtube" viewBox="0 0 24 24">
      <path stroke="none" d="M0 0h24v24H0z" fill="none"/>
      <rect x="3" y="5" width="18" height="14" rx="4" />
      <path d="M10 9l5 3l-5 3z" />
    </symbol>

  </defs>
</svg>